<?xml version="1.0" standalone="no"?>
<!DOCTYPE svg PUBLIC "-//W3C//DTD SVG 20010904//EN"
 "http://www.w3.org/TR/2001/REC-SVG-20010904/DTD/svg10.dtd">
<svg version="1.0" xmlns="http://www.w3.org/2000/svg"
 viewBox="0 0 1024.000000 1024.000000"
 preserveAspectRatio="xMidYMid meet">
<metadata>
Created by potrace 1.16, written by Peter Selinger 2001-2019
</metadata>
<g transform="translate(0.000000,1024.000000) scale(0.100000,-0.100000)"
fill="#0F172A" stroke="none">
<path d="M1755 6033 c-383 -82 -648 -424 -621 -803 7 -99 28 -191 40 -172 4 7
5 25 1 40 -14 55 -16 69 -17 158 0 50 2 96 6 103 11 17 23 13 28 -7 4 -13 13
-18 29 -17 14 1 30 -6 38 -17 9 -14 20 -18 38 -13 17 4 22 2 18 -5 -5 -8 3
-10 24 -7 17 3 31 1 31 -4 0 -6 5 -7 11 -3 8 4 9 -1 4 -17 -3 -14 -3 -19 2
-12 15 20 28 0 40 -60 56 -273 331 -465 579 -403 119 30 234 110 296 206 19
30 27 37 22 20 -51 -186 -189 -333 -392 -416 -74 -31 -42 -31 42 0 93 33 155
77 241 168 57 61 75 75 75 59 0 -12 -4 -21 -10 -21 -21 0 -9 -30 22 -51 17
-13 28 -16 23 -8 -5 8 1 6 13 -5 12 -10 28 -16 36 -13 8 3 20 -1 27 -9 23 -28
-44 -82 -179 -143 -62 -28 -82 -35 -111 -40 -3 -1 -1 -5 5 -11 11 -11 80 8
135 35 202 103 354 285 412 495 22 81 26 112 37 271 6 98 15 162 29 199 11 30
20 46 21 35 1 -20 1 -20 15 -1 19 25 19 37 0 30 -21 -9 -19 0 18 69 66 127
198 225 308 231 30 2 42 2 26 -1 -16 -3 -25 -9 -21 -15 5 -7 -2 -9 -20 -4 -18
4 -25 3 -21 -4 3 -5 19 -10 35 -10 16 0 32 -4 35 -10 4 -6 -9 -10 -32 -10 -21
0 -45 -5 -53 -10 -8 -5 -11 -10 -7 -10 4 0 2 -6 -5 -14 -10 -11 -16 -11 -27
-2 -11 8 -13 8 -8 -1 7 -12 -20 -82 -37 -94 -5 -4 -6 -11 -2 -17 3 -6 -2 -13
-11 -15 -10 -3 1 -5 23 -6 75 -2 145 -32 197 -83 55 -55 74 -94 83 -171 10
-83 -16 -158 -74 -216 -67 -66 -101 -79 -242 -91 -175 -16 -174 -15 -214 -133
-34 -99 -94 -202 -162 -277 l-36 -40 58 35 c86 52 140 65 319 76 181 11 235
24 353 80 139 67 248 190 307 349 26 67 29 88 29 200 1 146 -13 201 -76 306
-77 130 -196 226 -343 275 -58 20 -90 24 -185 23 -105 0 -123 -3 -200 -32
-150 -56 -279 -173 -349 -317 -52 -104 -61 -149 -70 -332 -8 -168 -9 -173 -43
-245 -81 -170 -230 -268 -406 -268 -179 0 -337 102 -415 267 -30 64 -32 75
-32 178 0 61 4 128 8 150 5 28 5 36 -2 25 -16 -22 -14 16 2 71 48 159 179 316
318 383 98 47 212 70 304 63 99 -9 145 -23 145 -47 0 -11 5 -20 11 -20 5 0 8
-4 5 -8 -4 -7 32 -9 54 -3 3 1 -11 10 -30 21 -43 24 -33 26 14 3 19 -9 33 -20
30 -25 -3 -4 2 -5 10 -2 9 3 30 -9 53 -31 21 -20 33 -34 26 -31 -6 4 -15 -3
-19 -16 l-7 -23 -8 23 c-5 12 -14 22 -21 21 -10 0 -10 -2 0 -6 6 -2 12 -12 12
-21 0 -13 -3 -12 -14 4 -10 14 -25 20 -45 19 -17 -1 -31 2 -31 7 0 4 -7 8 -16
8 -9 0 -13 -5 -9 -12 4 -7 -1 -4 -9 6 -9 11 -16 15 -16 9 0 -6 -11 -8 -26 -5
-21 4 -25 2 -19 -9 8 -12 6 -12 -8 0 -15 12 -20 11 -38 -4 -11 -11 -18 -24
-15 -31 3 -8 -3 -10 -17 -7 -15 3 -18 2 -9 -5 10 -7 10 -11 -3 -22 -8 -7 -15
-9 -15 -4 0 5 -51 10 -113 12 -124 3 -193 -10 -278 -54 -55 -28 -139 -99 -139
-119 0 -6 -9 -20 -20 -30 -11 -10 -20 -21 -20 -24 0 -4 31 23 68 59 41 39 96
79 138 99 61 31 80 35 164 39 78 3 106 0 160 -18 84 -28 145 -67 209 -135 29
-30 53 -49 55 -42 3 6 9 34 16 62 14 61 73 181 106 216 l24 25 -33 31 c-162
153 -433 225 -662 176z m1473 -140 c-10 -2 -26 -2 -35 0 -10 3 -2 5 17 5 19 0
27 -2 18 -5z"/>
<path d="M2285 5830 c8 -13 39 -17 60 -9 20 9 20 9 0 8 -11 -1 -22 0 -25 1
-18 7 -39 7 -35 0z"/>
<path d="M2852 5649 c-24 -12 -41 -24 -38 -27 3 -3 12 0 19 7 8 6 32 17 53 25
21 8 32 15 24 15 -8 1 -34 -9 -58 -20z"/>
<path d="M5515 5580 c-108 -23 -176 -109 -183 -232 l-4 -67 -107 -3 c-164 -5
-161 -6 -161 52 0 77 19 146 47 174 35 36 105 36 157 1 l36 -24 15 30 c9 16
13 34 10 38 -10 17 -108 34 -163 28 -117 -12 -197 -102 -209 -235 l-6 -62 -43
0 c-40 0 -44 -2 -44 -25 0 -23 4 -25 45 -25 l45 0 0 -251 0 -251 -30 -28 c-16
-15 -30 -31 -30 -34 0 -3 54 -6 120 -6 111 0 149 9 100 25 -39 12 -44 41 -48
298 l-4 247 134 0 134 0 -1 -256 0 -256 -27 -22 c-16 -12 -28 -25 -28 -29 0
-4 54 -7 120 -7 119 0 149 9 96 30 -39 14 -46 63 -46 313 l0 227 85 0 c84 0
85 0 85 25 0 25 -1 25 -86 25 l-87 0 5 88 c7 120 36 172 97 172 24 0 87 -53
96 -81 11 -32 28 -17 42 37 7 27 13 52 13 55 0 19 -126 39 -175 29z"/>
<path d="M8605 5585 c-5 -2 -42 -13 -82 -25 -52 -15 -71 -24 -67 -34 3 -8 14
-16 25 -19 10 -3 23 -17 29 -32 6 -16 10 -168 10 -387 l0 -360 -30 -28 c-16
-15 -30 -31 -30 -34 0 -3 52 -6 115 -6 96 0 115 3 115 15 0 8 -6 15 -14 15 -8
0 -22 10 -30 22 -23 32 -23 375 -1 418 26 50 81 80 148 80 51 0 62 -4 87 -28
41 -41 46 -77 44 -282 l-3 -185 -25 -20 c-14 -12 -26 -24 -26 -28 0 -4 54 -7
120 -7 73 0 120 4 120 10 0 6 -5 10 -10 10 -6 0 -22 12 -35 26 -25 27 -25 28
-25 228 0 190 -1 204 -24 252 -34 73 -79 99 -171 99 -58 0 -78 -5 -116 -27
-26 -15 -59 -42 -73 -59 l-26 -31 0 211 c0 116 -3 211 -7 210 -5 0 -12 -2 -18
-4z"/>
<path d="M4233 5540 c-224 -59 -361 -278 -323 -517 36 -228 214 -377 450 -376
225 1 398 154 428 380 18 126 -6 246 -66 339 -45 69 -92 111 -165 147 -104 50
-205 58 -324 27z m232 -54 c129 -60 205 -229 191 -426 -12 -187 -89 -313 -216
-355 -100 -33 -205 -7 -283 71 -128 128 -153 417 -52 590 31 52 108 121 149
133 62 18 158 12 211 -13z"/>
<path d="M6730 5531 c0 -6 11 -17 23 -26 13 -8 29 -27 35 -41 15 -32 17 -700
2 -738 -5 -14 -20 -28 -35 -32 -14 -3 -25 -12 -25 -20 0 -11 28 -14 145 -14
88 0 145 4 145 10 0 5 -11 12 -24 16 -62 15 -79 76 -69 243 l6 101 112 0 c153
0 205 16 272 85 60 62 78 111 70 196 -6 67 -25 106 -73 153 -63 61 -101 69
-356 74 -156 2 -228 0 -228 -7z m433 -63 c63 -35 91 -92 91 -187 0 -81 -13
-118 -56 -158 -42 -39 -91 -53 -189 -53 l-92 0 7 53 c3 28 6 126 6 216 l0 164
96 -6 c73 -5 106 -12 137 -29z"/>
<path d="M8167 5417 c-24 -58 -71 -114 -118 -137 -52 -27 -52 -50 1 -50 31 0
40 -4 41 -17 1 -10 2 -115 3 -233 1 -198 3 -218 22 -250 31 -54 77 -80 142
-80 60 0 132 33 152 71 17 31 2 40 -33 19 -18 -11 -45 -20 -62 -20 -98 0 -105
21 -105 296 l0 214 96 0 c93 0 95 1 92 23 -3 21 -8 22 -95 25 l-93 3 0 89 c0
103 -14 118 -43 47z"/>
<path d="M5827 5273 c-62 -21 -131 -83 -165 -147 -24 -46 -26 -62 -27 -156 0
-86 4 -113 21 -151 50 -107 132 -161 255 -167 111 -6 194 36 245 124 37 64 21
73 -36 20 -66 -62 -131 -78 -215 -55 -75 21 -125 79 -150 176 -27 102 -46 93
206 93 l221 0 -7 52 c-14 97 -56 163 -129 200 -55 28 -155 33 -219 11z m171
-58 c30 -25 62 -98 62 -142 l0 -23 -159 0 -159 0 8 35 c13 56 44 108 80 133
48 32 128 31 168 -3z"/>
<path d="M6337 5264 c-43 -12 -81 -25 -84 -28 -4 -4 8 -20 25 -36 l32 -29 0
-221 0 -222 -30 -28 c-16 -15 -30 -31 -30 -34 0 -3 59 -6 130 -6 80 0 130 4
130 10 0 6 -7 10 -15 10 -9 0 -27 11 -40 25 -24 24 -25 27 -25 186 0 178 9
225 51 270 35 37 101 41 143 8 32 -25 35 -23 47 28 17 74 14 81 -36 89 -75 11
-124 -16 -181 -100 l-33 -49 -3 74 -3 75 -78 -22z"/>
<path d="M7585 5277 c-61 -21 -125 -56 -132 -73 -6 -15 23 -100 36 -109 5 -2
21 21 37 52 33 64 76 93 137 93 83 0 129 -53 131 -149 l1 -53 -90 -27 c-119
-36 -207 -77 -238 -109 -51 -54 -53 -136 -5 -197 49 -63 168 -75 255 -25 28
16 58 39 66 51 15 20 15 20 26 -14 21 -62 87 -85 151 -52 26 14 50 42 50 60 0
4 -18 4 -39 0 -33 -5 -41 -3 -50 14 -7 12 -11 94 -11 214 0 183 -1 196 -23
238 -33 63 -89 92 -186 96 -45 2 -92 -3 -116 -10z m215 -378 l0 -102 -33 -31
c-43 -40 -95 -57 -144 -45 -50 11 -73 41 -73 94 0 70 34 100 180 161 30 13 58
23 63 24 4 0 7 -46 7 -101z"/>
<path d="M1177 5043 c-4 -3 -7 -11 -7 -17 0 -6 5 -5 12 2 6 6 9 14 7 17 -3 3
-9 2 -12 -2z"/>
<path d="M2680 4606 c0 -9 -9 -25 -19 -35 -11 -11 -17 -22 -15 -25 2 -3 1 -4
-3 -1 -3 3 -12 0 -19 -6 -8 -6 -21 -9 -29 -5 -9 3 -13 2 -10 -4 3 -6 1 -10 -5
-10 -6 0 -8 -4 -5 -10 3 -6 -1 -7 -10 -4 -19 8 -47 -14 -38 -30 3 -6 3 -8 -1
-4 -4 3 -19 0 -33 -7 -13 -7 -32 -12 -41 -10 -9 2 -22 4 -29 4 -7 1 -21 10
-32 22 l-19 21 -7 -54 c-3 -29 -5 -98 -3 -153 l3 -100 44 2 c125 6 240 109
276 248 17 67 20 161 5 170 -5 3 -10 -1 -10 -9z"/>
</g>
</svg>
