<?xml version="1.0" standalone="no"?>
<!DOCTYPE svg PUBLIC "-//W3C//DTD SVG 20010904//EN"
 "http://www.w3.org/TR/2001/REC-SVG-20010904/DTD/svg10.dtd">
<svg version="1.0" xmlns="http://www.w3.org/2000/svg"
 width="100%" height="100%" viewBox="-32 -62 310 310"
 preserveAspectRatio="xMidYMid meet">
<metadata>
Created by potrace 1.16, written by Peter Selinger 2001-2019
</metadata>
<g transform="translate(0.000000,186.000000) scale(0.100000,-0.100000)"
fill="#0F172A" stroke="none">
<path d="M625 1843 c-383 -82 -648 -424 -621 -803 7 -99 28 -191 40 -172 4 7
5 25 1 40 -14 55 -16 69 -17 158 0 50 2 96 6 103 11 17 23 13 28 -7 4 -13 13
-18 29 -17 14 1 30 -6 38 -17 9 -14 20 -18 38 -13 17 4 22 2 18 -5 -5 -8 3
-10 24 -7 17 3 31 1 31 -4 0 -6 5 -7 11 -3 8 4 9 -1 4 -17 -3 -14 -3 -19 2
-12 15 20 28 0 40 -60 56 -273 331 -465 579 -403 119 30 234 110 296 206 19
30 27 37 22 20 -51 -186 -189 -333 -392 -416 -74 -31 -42 -31 42 0 93 33 155
77 241 168 57 61 75 75 75 59 0 -12 -4 -21 -10 -21 -21 0 -9 -30 22 -51 17
-13 28 -16 23 -8 -5 8 1 6 13 -5 12 -10 28 -16 36 -13 8 3 20 -1 27 -9 23 -28
-44 -82 -179 -143 -62 -28 -82 -35 -111 -40 -3 -1 -1 -5 5 -11 11 -11 80 8
135 35 202 103 354 285 412 495 22 81 26 112 37 271 6 98 15 162 29 199 11 30
20 46 21 35 1 -20 1 -20 15 -1 19 25 19 37 0 30 -21 -9 -19 0 18 69 66 127
198 225 308 231 30 2 42 2 26 -1 -16 -3 -25 -9 -21 -15 5 -7 -2 -9 -20 -4 -18
4 -25 3 -21 -4 3 -5 19 -10 35 -10 16 0 32 -4 35 -10 4 -6 -9 -10 -32 -10 -21
0 -45 -5 -53 -10 -8 -5 -11 -10 -7 -10 4 0 2 -6 -5 -14 -10 -11 -16 -11 -27
-2 -11 8 -13 8 -8 -1 7 -12 -20 -82 -37 -94 -5 -4 -6 -11 -2 -17 3 -6 -2 -13
-11 -15 -10 -3 1 -5 23 -6 75 -2 145 -32 197 -83 55 -55 74 -94 83 -171 10
-83 -16 -158 -74 -216 -67 -66 -101 -79 -242 -91 -175 -16 -174 -15 -214 -133
-34 -99 -94 -202 -162 -277 l-36 -40 58 35 c86 52 140 65 319 76 181 11 235
24 353 80 139 67 248 190 307 349 26 67 29 88 29 200 1 146 -13 201 -76 306
-77 130 -196 226 -343 275 -58 20 -90 24 -185 23 -105 0 -123 -3 -200 -32
-150 -56 -279 -173 -349 -317 -52 -104 -61 -149 -70 -332 -8 -168 -9 -173 -43
-245 -81 -170 -230 -268 -406 -268 -179 0 -337 102 -415 267 -30 64 -32 75
-32 178 0 61 4 128 8 150 5 28 5 36 -2 25 -16 -22 -14 16 2 71 48 159 179 316
318 383 98 47 212 70 304 63 99 -9 145 -23 145 -47 0 -11 5 -20 11 -20 5 0 8
-4 5 -8 -4 -7 32 -9 54 -3 3 1 -11 10 -30 21 -43 24 -33 26 14 3 19 -9 33 -20
30 -25 -3 -4 2 -5 10 -2 9 3 30 -9 53 -31 21 -20 33 -34 26 -31 -6 4 -15 -3
-19 -16 l-7 -23 -8 23 c-5 12 -14 22 -21 21 -10 0 -10 -2 0 -6 6 -2 12 -12 12
-21 0 -13 -3 -12 -14 4 -10 14 -25 20 -45 19 -17 -1 -31 2 -31 7 0 4 -7 8 -16
8 -9 0 -13 -5 -9 -12 4 -7 -1 -4 -9 6 -9 11 -16 15 -16 9 0 -6 -11 -8 -26 -5
-21 4 -25 2 -19 -9 8 -12 6 -12 -8 0 -15 12 -20 11 -38 -4 -11 -11 -18 -24
-15 -31 3 -8 -3 -10 -17 -7 -15 3 -18 2 -9 -5 10 -7 10 -11 -3 -22 -8 -7 -15
-9 -15 -4 0 5 -51 10 -113 12 -124 3 -193 -10 -278 -54 -55 -28 -139 -99 -139
-119 0 -6 -9 -20 -20 -30 -11 -10 -20 -21 -20 -24 0 -4 31 23 68 59 41 39 96
79 138 99 61 31 80 35 164 39 78 3 106 0 160 -18 84 -28 145 -67 209 -135 29
-30 53 -49 55 -42 3 6 9 34 16 62 14 61 73 181 106 216 l24 25 -33 31 c-162
153 -433 225 -662 176z m1473 -140 c-10 -2 -26 -2 -35 0 -10 3 -2 5 17 5 19 0
27 -2 18 -5z"/>
<path d="M1155 1640 c8 -13 39 -17 60 -9 20 9 20 9 0 8 -11 -1 -22 0 -25 1
-18 7 -39 7 -35 0z"/>
<path d="M1722 1459 c-24 -12 -41 -24 -38 -27 3 -3 12 0 19 7 8 6 32 17 53 25
21 8 32 15 24 15 -8 1 -34 -9 -58 -20z"/>
<path d="M47 853 c-4 -3 -7 -11 -7 -17 0 -6 5 -5 12 2 6 6 9 14 7 17 -3 3 -9
2 -12 -2z"/>
<path d="M1550 416 c0 -9 -9 -25 -19 -35 -11 -11 -17 -22 -15 -25 2 -3 1 -4
-3 -1 -3 3 -12 0 -19 -6 -8 -6 -21 -9 -29 -5 -9 3 -13 2 -10 -4 3 -6 1 -10 -5
-10 -6 0 -8 -4 -5 -10 3 -6 -1 -7 -10 -4 -19 8 -47 -14 -38 -30 3 -6 3 -8 -1
-4 -4 3 -19 0 -33 -7 -13 -7 -32 -12 -41 -10 -9 2 -22 4 -29 4 -7 1 -21 10
-32 22 l-19 21 -7 -54 c-3 -29 -5 -98 -3 -153 l3 -100 44 2 c125 6 240 109
276 248 17 67 20 161 5 170 -5 3 -10 -1 -10 -9z"/>
</g>
</svg>
